<svg width="32" height="32" viewBox="0 0 32 32" xmlns="http://www.w3.org/2000/svg">
  <rect width="32" height="32" fill="#8B4513"/>

  <rect x="0" y="0" width="32" height="2" fill="#A0522D"/>
  <rect x="0" y="30" width="32" height="2" fill="#654321"/>
  <rect x="0" y="0" width="2" height="32" fill="#A0522D"/>
  <rect x="30" y="0" width="2" height="32" fill="#654321"/>

  <rect x="2" y="2" width="28" height="28" fill="#CD853F" opacity="0.7"/>

  <polygon points="16,6 20,14 12,14" fill="#FFD700"/>
  <polygon points="16,4 18,12 14,12" fill="#FFF"/>

  <rect x="14" y="14" width="4" height="4" fill="#333"/>
  <rect x="15" y="15" width="2" height="2" fill="#FFF"/>

  <rect x="8" y="15" width="6" height="2" fill="#2196F3"/>
  <rect x="18" y="15" width="6" height="2" fill="#2196F3"/>

  <rect x="15" y="8" width="2" height="6" fill="#4CAF50"/>
  <rect x="15" y="18" width="2" height="6" fill="#4CAF50"/>

  <rect x="10" y="24" width="2" height="2" fill="#FF5722"/>
  <rect x="14" y="26" width="2" height="2" fill="#FF5722"/>
  <rect x="18" y="24" width="2" height="2" fill="#FF5722"/>

  <rect x="26" y="20" width="2" height="2" fill="#9C27B0"/>
  <rect x="26" y="18" width="2" height="2" fill="#9C27B0"/>
  <rect x="26" y="16" width="2" height="2" fill="#9C27B0"/>
</svg>
